<?xml version="1.0" standalone="no"?>
<!DOCTYPE svg PUBLIC "-//W3C//DTD SVG 20010904//EN"
 "http://www.w3.org/TR/2001/REC-SVG-20010904/DTD/svg10.dtd">
<svg version="1.0" xmlns="http://www.w3.org/2000/svg"
 width="700.000000pt" height="700.000000pt" viewBox="0 0 700.000000 700.000000"
 preserveAspectRatio="xMidYMid meet">
<metadata>
Created by potrace 1.11, written by Peter Selinger 2001-2013
</metadata>
<g transform="translate(0.000000,700.000000) scale(0.100000,-0.100000)"
fill="#000000" stroke="none">
<path d="M1110 6686 c0 -6 7 -47 16 -91 8 -44 19 -102 24 -130 5 -27 12 -63
15 -80 3 -16 13 -68 21 -115 9 -47 18 -94 20 -105 2 -11 11 -58 20 -105 9 -47
18 -94 20 -105 7 -36 66 -353 79 -422 4 -24 13 -44 19 -44 30 -4 1383 -6 1398
-2 10 2 17 7 16 11 -2 7 21 83 72 247 16 50 42 135 59 190 16 55 73 241 125
413 52 172 96 320 98 330 3 16 -52 17 -999 18 -710 0 -1003 -3 -1003 -10z"/>
<path d="M4120 6688 c0 -9 93 -326 167 -568 19 -63 52 -173 73 -245 62 -211
159 -534 185 -620 23 -74 173 -577 241 -807 16 -54 31 -98 34 -98 4 0 274 415
400 615 19 31 107 167 195 303 87 136 188 292 224 347 98 153 149 231 216 335
34 52 95 147 135 210 40 63 94 147 119 185 25 39 50 78 56 87 5 10 45 72 88
137 42 66 77 122 77 124 0 2 -497 3 -1105 3 -625 0 -1105 -3 -1105 -8z"/>
<path d="M3592 4070 c-36 -115 -270 -853 -402 -1270 -40 -124 -82 -259 -95
-300 -13 -41 -30 -95 -38 -120 -8 -25 -36 -112 -62 -195 -26 -82 -62 -197 -80
-255 -19 -58 -66 -206 -105 -330 -39 -124 -98 -310 -131 -415 -33 -104 -73
-230 -89 -280 -47 -151 -211 -669 -214 -680 -2 -7 413 -10 1235 -10 760 0
1239 4 1239 9 0 9 -25 88 -170 546 -33 102 -93 291 -133 420 l-74 235 -758 3
c-417 1 -760 4 -763 6 -2 3 57 98 130 213 737 1144 881 1369 881 1378 0 6 -39
134 -87 285 -48 151 -112 354 -143 450 -80 254 -85 270 -104 325 l-17 50 -20
-65z"/>
<path d="M880 695 c-30 -47 -91 -141 -135 -208 -109 -166 -165 -257 -165 -265
0 -4 115 -7 255 -7 140 0 255 0 255 0 0 1 -20 75 -44 165 -24 91 -56 215 -71
275 -16 61 -31 113 -34 117 -4 4 -31 -31 -61 -77z"/>
</g>
</svg>
