<?xml version="1.0"?>
<svg xmlnsRdf="http://www.w3.org/1999/02/22-rdf-syntax-ns#" xmlns="http://www.w3.org/2000/svg" xmlnsCc="http://web.resource.org/cc/" xmlnsXlink="http://www.w3.org/1999/xlink" xmlnsDc="http://purl.org/dc/elements/1.1/" xmlnsSvg="http://www.w3.org/2000/svg" id="svg2633" viewBox="0 0 82 60" version="1.0">
  <g id="layer1" transform="translate(-19.315 -20.92)" fill-rule="evenodd">
    <path id="path3676" transform="matrix(.62849 0 0 .62849 -351.35 -520.1)" fill="#ef2929" d="m690.1 908.55a35.101 35.101 0 1 1 -70.2 0 35.101 35.101 0 1 1 70.2 0z"/>
    <g id="g3750" fill="#a40000" transform="matrix(.58241 0 0 .62445 -298.36 -439.03)">
      <path id="path3752" xlinkHref="#path22091" transform="matrix(.93548 0 0 .93548 3.1009 -64.472)" d="m649.09 892c-7.61 2.49-13.15 9.61-13.15 18.06 0 10.53 8.54 19.06 19.06 19.06s19.06-8.53 19.06-19.06c0-8.46-5.56-15.57-13.18-18.06v6.81c4.06 2.14 6.9 6.34 6.9 11.25 0 7.05-5.73 12.78-12.78 12.78s-12.78-5.73-12.78-12.78c0-4.9 2.81-9.11 6.87-11.25v-6.81z"/>
      <path id="path3754" xlinkHref="#path22093" transform="matrix(.93548 0 0 .93548 3.1009 -64.472)" d="m651.78 887.91v22.62h6.44v-22.62h-6.44z"/>
    </g>
    <g id="g3756" fill="#eeeeec" transform="matrix(.58241 0 0 .58241 -298.36 -406.82)">
      <path id="path3758" xlinkHref="#path22091" transform="matrix(.93548 0 0 .93548 3.1009 -64.472)" d="m649.09 892c-7.61 2.49-13.15 9.61-13.15 18.06 0 10.53 8.54 19.06 19.06 19.06s19.06-8.53 19.06-19.06c0-8.46-5.56-15.57-13.18-18.06v6.81c4.06 2.14 6.9 6.34 6.9 11.25 0 7.05-5.73 12.78-12.78 12.78s-12.78-5.73-12.78-12.78c0-4.9 2.81-9.11 6.87-11.25v-6.81z"/>
      <path id="path3760" xlinkHref="#path22093" transform="matrix(.93548 0 0 .93548 3.1009 -64.472)" d="m651.78 887.91v22.62h6.44v-22.62h-6.44z"/>
    </g>
    <path id="path3678" opacity=".75" transform="matrix(.70156 0 0 .73625 -28.922 17.305)" fill="url(#linearGradient2243)" d="m149.63 34.779a22.429 16.284 0 1 1 -44.86 0 22.429 16.284 0 1 1 44.86 0z"/>
  </g>
</svg>
